<mxfile host="app.diagrams.net" agent="Mozilla/5.0 (Windows NT 10.0; Win64; x64) AppleWebKit/537.36 (KHTML, like Gecko) Chrome/128.0.0.0 Safari/537.36 OPR/114.0.0.0" version="25.0.3">
  <diagram name="PÃ¡gina-1" id="ZYrXFXTMh5Co8lFkQm1W">
    <mxGraphModel dx="1517" dy="1969" grid="1" gridSize="10" guides="1" tooltips="1" connect="1" arrows="1" fold="1" page="1" pageScale="1" pageWidth="827" pageHeight="1169" math="0" shadow="0">
      <root>
        <mxCell id="0" />
        <mxCell id="1" parent="0" />
        <mxCell id="kKFBRijeVNlWxLfUlnX_-417" value="Auto Scaling group" style="points=[[0,0],[0.25,0],[0.5,0],[0.75,0],[1,0],[1,0.25],[1,0.5],[1,0.75],[1,1],[0.75,1],[0.5,1],[0.25,1],[0,1],[0,0.75],[0,0.5],[0,0.25]];outlineConnect=0;gradientColor=none;html=1;whiteSpace=wrap;fontSize=12;fontStyle=0;container=1;pointerEvents=0;collapsible=0;recursiveResize=0;shape=mxgraph.aws4.groupCenter;grIcon=mxgraph.aws4.group_auto_scaling_group;grStroke=1;strokeColor=#D86613;fillColor=none;verticalAlign=top;align=center;fontColor=#D86613;dashed=1;spacingTop=25;" vertex="1" parent="1">
          <mxGeometry y="-630" width="750" height="610" as="geometry" />
        </mxCell>
        <mxCell id="kKFBRijeVNlWxLfUlnX_-419" value="" style="outlineConnect=0;dashed=0;verticalLabelPosition=bottom;verticalAlign=top;align=center;html=1;shape=mxgraph.aws3.application_load_balancer;fillColor=#F58534;gradientColor=none;" vertex="1" parent="kKFBRijeVNlWxLfUlnX_-417">
          <mxGeometry x="340.5" y="500" width="69" height="72" as="geometry" />
        </mxCell>
        <mxCell id="kKFBRijeVNlWxLfUlnX_-420" value="" style="points=[[0,0],[0.25,0],[0.5,0],[0.75,0],[1,0],[1,0.25],[1,0.5],[1,0.75],[1,1],[0.75,1],[0.5,1],[0.25,1],[0,1],[0,0.75],[0,0.5],[0,0.25]];outlineConnect=0;gradientColor=none;html=1;whiteSpace=wrap;fontSize=12;fontStyle=0;container=1;pointerEvents=0;collapsible=0;recursiveResize=0;shape=mxgraph.aws4.group;grIcon=mxgraph.aws4.group_ec2_instance_contents;strokeColor=#D86613;fillColor=none;verticalAlign=top;align=left;spacingLeft=30;fontColor=#D86613;dashed=0;" vertex="1" parent="kKFBRijeVNlWxLfUlnX_-417">
          <mxGeometry x="275" y="110" width="200" height="340" as="geometry" />
        </mxCell>
        <mxCell id="kKFBRijeVNlWxLfUlnX_-438" value="Public subnet" style="points=[[0,0],[0.25,0],[0.5,0],[0.75,0],[1,0],[1,0.25],[1,0.5],[1,0.75],[1,1],[0.75,1],[0.5,1],[0.25,1],[0,1],[0,0.75],[0,0.5],[0,0.25]];outlineConnect=0;gradientColor=none;html=1;whiteSpace=wrap;fontSize=12;fontStyle=0;container=1;pointerEvents=0;collapsible=0;recursiveResize=0;shape=mxgraph.aws4.group;grIcon=mxgraph.aws4.group_security_group;grStroke=0;strokeColor=#7AA116;fillColor=#F2F6E8;verticalAlign=top;align=left;spacingLeft=30;fontColor=#248814;dashed=0;" vertex="1" parent="kKFBRijeVNlWxLfUlnX_-420">
          <mxGeometry x="10" y="60" width="180" height="250" as="geometry" />
        </mxCell>
        <mxCell id="kKFBRijeVNlWxLfUlnX_-445" value="" style="sketch=0;points=[[0,0,0],[0.25,0,0],[0.5,0,0],[0.75,0,0],[1,0,0],[0,1,0],[0.25,1,0],[0.5,1,0],[0.75,1,0],[1,1,0],[0,0.25,0],[0,0.5,0],[0,0.75,0],[1,0.25,0],[1,0.5,0],[1,0.75,0]];outlineConnect=0;fontColor=#232F3E;fillColor=#ED7100;strokeColor=#ffffff;dashed=0;verticalLabelPosition=bottom;verticalAlign=top;align=center;html=1;fontSize=12;fontStyle=0;aspect=fixed;shape=mxgraph.aws4.resourceIcon;resIcon=mxgraph.aws4.ec2;" vertex="1" parent="kKFBRijeVNlWxLfUlnX_-438">
          <mxGeometry x="37.5" y="85" width="50" height="50" as="geometry" />
        </mxCell>
        <mxCell id="kKFBRijeVNlWxLfUlnX_-446" value="&lt;font style=&quot;font-size: 14px;&quot;&gt;EC2&lt;/font&gt;" style="text;html=1;align=center;verticalAlign=middle;resizable=0;points=[];autosize=1;strokeColor=none;fillColor=none;" vertex="1" parent="kKFBRijeVNlWxLfUlnX_-438">
          <mxGeometry x="37.5" y="135" width="50" height="30" as="geometry" />
        </mxCell>
        <mxCell id="kKFBRijeVNlWxLfUlnX_-447" value="" style="sketch=0;points=[[0,0,0],[0.25,0,0],[0.5,0,0],[0.75,0,0],[1,0,0],[0,1,0],[0.25,1,0],[0.5,1,0],[0.75,1,0],[1,1,0],[0,0.25,0],[0,0.5,0],[0,0.75,0],[1,0.25,0],[1,0.5,0],[1,0.75,0]];outlineConnect=0;fontColor=#232F3E;fillColor=#C925D1;strokeColor=#ffffff;dashed=0;verticalLabelPosition=bottom;verticalAlign=top;align=center;html=1;fontSize=12;fontStyle=0;aspect=fixed;shape=mxgraph.aws4.resourceIcon;resIcon=mxgraph.aws4.rds;" vertex="1" parent="kKFBRijeVNlWxLfUlnX_-438">
          <mxGeometry x="92.5" y="85" width="50" height="50" as="geometry" />
        </mxCell>
        <mxCell id="kKFBRijeVNlWxLfUlnX_-448" value="&lt;font style=&quot;font-size: 14px;&quot;&gt;RDS&lt;/font&gt;" style="text;html=1;align=center;verticalAlign=middle;resizable=0;points=[];autosize=1;strokeColor=none;fillColor=none;" vertex="1" parent="kKFBRijeVNlWxLfUlnX_-438">
          <mxGeometry x="92.5" y="135" width="50" height="30" as="geometry" />
        </mxCell>
        <mxCell id="kKFBRijeVNlWxLfUlnX_-455" value="&lt;font style=&quot;font-size: 14px;&quot;&gt;ProductAPI&lt;/font&gt;" style="text;html=1;align=center;verticalAlign=middle;resizable=0;points=[];autosize=1;strokeColor=none;fillColor=none;" vertex="1" parent="kKFBRijeVNlWxLfUlnX_-420">
          <mxGeometry x="55" y="10" width="90" height="30" as="geometry" />
        </mxCell>
        <mxCell id="kKFBRijeVNlWxLfUlnX_-424" value="" style="points=[[0,0],[0.25,0],[0.5,0],[0.75,0],[1,0],[1,0.25],[1,0.5],[1,0.75],[1,1],[0.75,1],[0.5,1],[0.25,1],[0,1],[0,0.75],[0,0.5],[0,0.25]];outlineConnect=0;gradientColor=none;html=1;whiteSpace=wrap;fontSize=12;fontStyle=0;container=1;pointerEvents=0;collapsible=0;recursiveResize=0;shape=mxgraph.aws4.group;grIcon=mxgraph.aws4.group_ec2_instance_contents;strokeColor=#D86613;fillColor=none;verticalAlign=top;align=left;spacingLeft=30;fontColor=#D86613;dashed=0;" vertex="1" parent="kKFBRijeVNlWxLfUlnX_-417">
          <mxGeometry x="530" y="110" width="200" height="340" as="geometry" />
        </mxCell>
        <mxCell id="kKFBRijeVNlWxLfUlnX_-428" value="Public subnet" style="points=[[0,0],[0.25,0],[0.5,0],[0.75,0],[1,0],[1,0.25],[1,0.5],[1,0.75],[1,1],[0.75,1],[0.5,1],[0.25,1],[0,1],[0,0.75],[0,0.5],[0,0.25]];outlineConnect=0;gradientColor=none;html=1;whiteSpace=wrap;fontSize=12;fontStyle=0;container=1;pointerEvents=0;collapsible=0;recursiveResize=0;shape=mxgraph.aws4.group;grIcon=mxgraph.aws4.group_security_group;grStroke=0;strokeColor=#7AA116;fillColor=#F2F6E8;verticalAlign=top;align=left;spacingLeft=30;fontColor=#248814;dashed=0;" vertex="1" parent="kKFBRijeVNlWxLfUlnX_-424">
          <mxGeometry x="10" y="60" width="180" height="250" as="geometry" />
        </mxCell>
        <mxCell id="kKFBRijeVNlWxLfUlnX_-443" value="" style="sketch=0;points=[[0,0,0],[0.25,0,0],[0.5,0,0],[0.75,0,0],[1,0,0],[0,1,0],[0.25,1,0],[0.5,1,0],[0.75,1,0],[1,1,0],[0,0.25,0],[0,0.5,0],[0,0.75,0],[1,0.25,0],[1,0.5,0],[1,0.75,0]];outlineConnect=0;fontColor=#232F3E;fillColor=#ED7100;strokeColor=#ffffff;dashed=0;verticalLabelPosition=bottom;verticalAlign=top;align=center;html=1;fontSize=12;fontStyle=0;aspect=fixed;shape=mxgraph.aws4.resourceIcon;resIcon=mxgraph.aws4.ec2;" vertex="1" parent="kKFBRijeVNlWxLfUlnX_-428">
          <mxGeometry x="37.5" y="85" width="50" height="50" as="geometry" />
        </mxCell>
        <mxCell id="kKFBRijeVNlWxLfUlnX_-444" value="&lt;font style=&quot;font-size: 14px;&quot;&gt;EC2&lt;/font&gt;" style="text;html=1;align=center;verticalAlign=middle;resizable=0;points=[];autosize=1;strokeColor=none;fillColor=none;" vertex="1" parent="kKFBRijeVNlWxLfUlnX_-428">
          <mxGeometry x="37.5" y="135" width="50" height="30" as="geometry" />
        </mxCell>
        <mxCell id="kKFBRijeVNlWxLfUlnX_-409" value="" style="sketch=0;points=[[0,0,0],[0.25,0,0],[0.5,0,0],[0.75,0,0],[1,0,0],[0,1,0],[0.25,1,0],[0.5,1,0],[0.75,1,0],[1,1,0],[0,0.25,0],[0,0.5,0],[0,0.75,0],[1,0.25,0],[1,0.5,0],[1,0.75,0]];outlineConnect=0;fontColor=#232F3E;fillColor=#C925D1;strokeColor=#ffffff;dashed=0;verticalLabelPosition=bottom;verticalAlign=top;align=center;html=1;fontSize=12;fontStyle=0;aspect=fixed;shape=mxgraph.aws4.resourceIcon;resIcon=mxgraph.aws4.rds;" vertex="1" parent="kKFBRijeVNlWxLfUlnX_-428">
          <mxGeometry x="92.5" y="85" width="50" height="50" as="geometry" />
        </mxCell>
        <mxCell id="kKFBRijeVNlWxLfUlnX_-411" value="&lt;font style=&quot;font-size: 14px;&quot;&gt;RDS&lt;/font&gt;" style="text;html=1;align=center;verticalAlign=middle;resizable=0;points=[];autosize=1;strokeColor=none;fillColor=none;" vertex="1" parent="kKFBRijeVNlWxLfUlnX_-428">
          <mxGeometry x="92.5" y="135" width="50" height="30" as="geometry" />
        </mxCell>
        <mxCell id="kKFBRijeVNlWxLfUlnX_-456" value="&lt;font style=&quot;font-size: 14px;&quot;&gt;ProductAPI&lt;/font&gt;" style="text;html=1;align=center;verticalAlign=middle;resizable=0;points=[];autosize=1;strokeColor=none;fillColor=none;" vertex="1" parent="kKFBRijeVNlWxLfUlnX_-424">
          <mxGeometry x="55" y="10" width="90" height="30" as="geometry" />
        </mxCell>
        <mxCell id="kKFBRijeVNlWxLfUlnX_-425" value="" style="endArrow=classic;html=1;rounded=0;exitX=1;exitY=0.5;exitDx=0;exitDy=0;exitPerimeter=0;entryX=0.5;entryY=1;entryDx=0;entryDy=0;" edge="1" parent="kKFBRijeVNlWxLfUlnX_-417" source="kKFBRijeVNlWxLfUlnX_-419" target="kKFBRijeVNlWxLfUlnX_-424">
          <mxGeometry width="50" height="50" relative="1" as="geometry">
            <mxPoint x="290" y="300" as="sourcePoint" />
            <mxPoint x="340" y="250" as="targetPoint" />
            <Array as="points">
              <mxPoint x="630" y="536" />
            </Array>
          </mxGeometry>
        </mxCell>
        <mxCell id="kKFBRijeVNlWxLfUlnX_-426" value="" style="endArrow=classic;html=1;rounded=0;exitX=0.5;exitY=0;exitDx=0;exitDy=0;exitPerimeter=0;entryX=0.5;entryY=1;entryDx=0;entryDy=0;" edge="1" parent="kKFBRijeVNlWxLfUlnX_-417" source="kKFBRijeVNlWxLfUlnX_-419" target="kKFBRijeVNlWxLfUlnX_-420">
          <mxGeometry width="50" height="50" relative="1" as="geometry">
            <mxPoint x="470" y="430" as="sourcePoint" />
            <mxPoint x="520" y="380" as="targetPoint" />
          </mxGeometry>
        </mxCell>
        <mxCell id="kKFBRijeVNlWxLfUlnX_-427" value="" style="endArrow=classic;html=1;rounded=0;exitX=0;exitY=0.5;exitDx=0;exitDy=0;exitPerimeter=0;entryX=0.5;entryY=1;entryDx=0;entryDy=0;" edge="1" parent="kKFBRijeVNlWxLfUlnX_-417" source="kKFBRijeVNlWxLfUlnX_-419" target="kKFBRijeVNlWxLfUlnX_-415">
          <mxGeometry width="50" height="50" relative="1" as="geometry">
            <mxPoint x="280" y="430" as="sourcePoint" />
            <mxPoint x="330" y="380" as="targetPoint" />
            <Array as="points">
              <mxPoint x="120" y="536" />
            </Array>
          </mxGeometry>
        </mxCell>
        <mxCell id="kKFBRijeVNlWxLfUlnX_-415" value="" style="points=[[0,0],[0.25,0],[0.5,0],[0.75,0],[1,0],[1,0.25],[1,0.5],[1,0.75],[1,1],[0.75,1],[0.5,1],[0.25,1],[0,1],[0,0.75],[0,0.5],[0,0.25]];outlineConnect=0;gradientColor=none;html=1;whiteSpace=wrap;fontSize=12;fontStyle=0;container=1;pointerEvents=0;collapsible=0;recursiveResize=0;shape=mxgraph.aws4.group;grIcon=mxgraph.aws4.group_ec2_instance_contents;strokeColor=#D86613;fillColor=none;verticalAlign=top;align=left;spacingLeft=30;fontColor=#D86613;dashed=0;" vertex="1" parent="kKFBRijeVNlWxLfUlnX_-417">
          <mxGeometry x="20" y="110" width="200" height="340" as="geometry" />
        </mxCell>
        <mxCell id="kKFBRijeVNlWxLfUlnX_-416" value="Public subnet" style="points=[[0,0],[0.25,0],[0.5,0],[0.75,0],[1,0],[1,0.25],[1,0.5],[1,0.75],[1,1],[0.75,1],[0.5,1],[0.25,1],[0,1],[0,0.75],[0,0.5],[0,0.25]];outlineConnect=0;gradientColor=none;html=1;whiteSpace=wrap;fontSize=12;fontStyle=0;container=1;pointerEvents=0;collapsible=0;recursiveResize=0;shape=mxgraph.aws4.group;grIcon=mxgraph.aws4.group_security_group;grStroke=0;strokeColor=#7AA116;fillColor=#F2F6E8;verticalAlign=top;align=left;spacingLeft=30;fontColor=#248814;dashed=0;" vertex="1" parent="kKFBRijeVNlWxLfUlnX_-415">
          <mxGeometry x="10" y="60" width="180" height="250" as="geometry" />
        </mxCell>
        <mxCell id="kKFBRijeVNlWxLfUlnX_-449" value="" style="sketch=0;points=[[0,0,0],[0.25,0,0],[0.5,0,0],[0.75,0,0],[1,0,0],[0,1,0],[0.25,1,0],[0.5,1,0],[0.75,1,0],[1,1,0],[0,0.25,0],[0,0.5,0],[0,0.75,0],[1,0.25,0],[1,0.5,0],[1,0.75,0]];outlineConnect=0;fontColor=#232F3E;fillColor=#ED7100;strokeColor=#ffffff;dashed=0;verticalLabelPosition=bottom;verticalAlign=top;align=center;html=1;fontSize=12;fontStyle=0;aspect=fixed;shape=mxgraph.aws4.resourceIcon;resIcon=mxgraph.aws4.ec2;" vertex="1" parent="kKFBRijeVNlWxLfUlnX_-416">
          <mxGeometry x="37.5" y="85" width="50" height="50" as="geometry" />
        </mxCell>
        <mxCell id="kKFBRijeVNlWxLfUlnX_-450" value="&lt;font style=&quot;font-size: 14px;&quot;&gt;EC2&lt;/font&gt;" style="text;html=1;align=center;verticalAlign=middle;resizable=0;points=[];autosize=1;strokeColor=none;fillColor=none;" vertex="1" parent="kKFBRijeVNlWxLfUlnX_-416">
          <mxGeometry x="37.5" y="135" width="50" height="30" as="geometry" />
        </mxCell>
        <mxCell id="kKFBRijeVNlWxLfUlnX_-451" value="" style="sketch=0;points=[[0,0,0],[0.25,0,0],[0.5,0,0],[0.75,0,0],[1,0,0],[0,1,0],[0.25,1,0],[0.5,1,0],[0.75,1,0],[1,1,0],[0,0.25,0],[0,0.5,0],[0,0.75,0],[1,0.25,0],[1,0.5,0],[1,0.75,0]];outlineConnect=0;fontColor=#232F3E;fillColor=#C925D1;strokeColor=#ffffff;dashed=0;verticalLabelPosition=bottom;verticalAlign=top;align=center;html=1;fontSize=12;fontStyle=0;aspect=fixed;shape=mxgraph.aws4.resourceIcon;resIcon=mxgraph.aws4.rds;" vertex="1" parent="kKFBRijeVNlWxLfUlnX_-416">
          <mxGeometry x="92.5" y="85" width="50" height="50" as="geometry" />
        </mxCell>
        <mxCell id="kKFBRijeVNlWxLfUlnX_-452" value="&lt;font style=&quot;font-size: 14px;&quot;&gt;RDS&lt;/font&gt;" style="text;html=1;align=center;verticalAlign=middle;resizable=0;points=[];autosize=1;strokeColor=none;fillColor=none;" vertex="1" parent="kKFBRijeVNlWxLfUlnX_-416">
          <mxGeometry x="92.5" y="135" width="50" height="30" as="geometry" />
        </mxCell>
        <mxCell id="kKFBRijeVNlWxLfUlnX_-454" value="&lt;font style=&quot;font-size: 14px;&quot;&gt;ProductAPI&lt;/font&gt;" style="text;html=1;align=center;verticalAlign=middle;resizable=0;points=[];autosize=1;strokeColor=none;fillColor=none;" vertex="1" parent="kKFBRijeVNlWxLfUlnX_-415">
          <mxGeometry x="55" y="10" width="90" height="30" as="geometry" />
        </mxCell>
        <mxCell id="kKFBRijeVNlWxLfUlnX_-453" value="&lt;font style=&quot;font-size: 14px;&quot;&gt;Application Load Balancer&lt;/font&gt;" style="text;html=1;align=center;verticalAlign=middle;resizable=0;points=[];autosize=1;strokeColor=none;fillColor=none;" vertex="1" parent="kKFBRijeVNlWxLfUlnX_-417">
          <mxGeometry x="280" y="572" width="190" height="30" as="geometry" />
        </mxCell>
      </root>
    </mxGraphModel>
  </diagram>
</mxfile>
